# xmcd
#
# Track frame offsets: 
#        150
#        48120
#        83842
#        98775
#        113927
#        130360
#        150927
#        165187
#        178495
#
# Disc length: 2631 seconds
#
# Revision: 0
# Processed by: cddbd v1.5.2PL0 Copyright (c) Steve Scherf et al.
# Submitted via: ExactAudioCopy v1.0b3
#
DISCID=660a4509
DTITLE=John Kerr - Citadel
DYEAR=1988
DGENRE=Electronic
TTITLE0=The Call
TTITLE1=Thirteenth Triangle
TTITLE2=Misted Light Below
TTITLE3=Paradise With A Sting
TTITLE4=Rogue's Theme
TTITLE5=In The Shadow Of The Light
TTITLE6=Passion, Love And Pain
TTITLE7=On The Plains Of Creation
TTITLE8=Friendship Hard And Sure
EXTD=
EXTT0=
EXTT1=
EXTT2=
EXTT3=
EXTT4=
EXTT5=
EXTT6=
EXTT7=
EXTT8=
PLAYORDER=
